<svg xmlns="http://www.w3.org/2000/svg" viewBox="0 0 912.3 284.62"><defs><style>.cls-1{fill:#006736;}.cls-2{fill:#fbf702;}</style></defs><title>logo</title><g id="Layer_2" data-name="Layer 2"><g id="Layer_1-2" data-name="Layer 1"><path class="cls-1" d="M102.79,58.36c58.85,0,83.79,31.89,86.64,71H145.25c-3.4-21.22-14.49-36.24-43-36.24-25.18,0-37.64,12-37.64,31.54,0,20.64,12.91,27.4,50.57,38.5,64.12,19,80.52,44.25,80.52,80.22,0,41.73-28.12,75.56-90.86,75.56-54.54,0-88.88-28.08-92.18-77H57.05c4.11,26.47,21.63,41.82,49.78,41.82,29.49,0,43-13.61,43-35.12,0-24.81-13.73-35.13-53.16-46.74-57-16.28-77.15-36.23-77.15-72.86,0-44.82,35.24-70.68,83.26-70.68m0-12c-26.92,0-50.17,7.34-67.22,21.23-18.34,14.94-28,36.19-28,61.45,0,22.36,6.65,39.13,20.94,52.74,13.38,12.76,34,22.81,64.87,31.64,40.11,11.82,44.5,20.19,44.5,35.22,0,7.49-2.06,12.9-6.28,16.54-5,4.31-13.55,6.58-24.73,6.58-21.9,0-34.66-10.65-37.92-31.66a12,12,0,0,0-11.86-10.16H12.61a12,12,0,0,0-12,12.8c1.84,27.31,12.62,49.89,31.18,65.31,18,15,43.29,22.93,73,22.93,16.47,0,31.43-2.21,44.46-6.56a89.54,89.54,0,0,0,32.62-18.74c16.86-15.5,25.78-37,25.78-62.26,0-22.86-6.16-40.21-19.38-54.6-14.19-15.45-36.35-27.25-69.74-37.13-40.27-11.87-42-16.85-42-27,0-6.39,1.71-11,5.24-14,4.14-3.59,11.19-5.49,20.4-5.49,19.44,0,28.18,7.33,31.2,26.14a12,12,0,0,0,11.85,10.1h44.18a12,12,0,0,0,12-12.87c-1.74-23.86-10.78-44-26.15-58.15-17.28-15.94-41.66-24-72.46-24Z" transform="translate(-0.61 -46.36)"/><path class="cls-1" d="M437.17,61.69V315.87h-55c-90.4-178.94-99.1-197.72-103.43-207.63h-.37c1.85,32.37,1.89,75.85,1.89,121.32v86.31H239V61.69h57.81c84.34,163.62,97.07,188.46,101.21,200.22h.63c-2.48-31.44-2.85-72.77-2.85-114.21v-86h41.33m0-12H395.84a12,12,0,0,0-12,12v86c0,19.37.08,39.05.43,57.82C369.61,176.69,346.05,131,307.52,56.19a12,12,0,0,0-10.67-6.5H239a12,12,0,0,0-12,12V315.87a12,12,0,0,0,12,12h41.22a12,12,0,0,0,12-12V229.56c0-22.31,0-45-.26-66.34,14.79,29.76,39,77.93,79.46,158.06a12,12,0,0,0,10.71,6.59h55a12,12,0,0,0,12-12V61.69a12,12,0,0,0-12-12Z" transform="translate(-0.61 -46.36)"/><path class="cls-1" d="M606.49,61.69l83.27,254.18H642.44L621,249.68H533.88l-20.26,66.19H469.33c8.29-24.67,70.13-226.2,79.42-254.18h57.74M542.8,212.16h68.94C594,155.88,582.08,119,576.6,96.46h-.48c-6.47,28.85-18.57,68.33-33.32,115.7M606.49,49.69H548.75a12,12,0,0,0-11.39,8.22c-4.62,13.92-21.54,68.5-39.45,126.3C480.31,241,462.11,299.68,458,312a12,12,0,0,0,11.38,15.83h44.29a12,12,0,0,0,11.47-8.49l17.66-57.7H612.3L631,319.56a12,12,0,0,0,11.42,8.31h47.32a12,12,0,0,0,11.41-15.74L617.89,58a12,12,0,0,0-11.4-8.26ZM559.1,200.16c6.72-21.71,12.73-41.4,17.76-59,4.55,14.83,10.09,32.39,16.67,53.2l1.83,5.8Z" transform="translate(-0.61 -46.36)"/><path class="cls-1" d="M813.77,61.69c47.62,0,87.15,24.53,87.15,74.08,0,51.84-37.6,78.15-91.48,78.15H768v102H723V61.69h90.78M768,178.08h38.9c29.47,0,48.37-10.65,48.37-41.42,0-27.26-19.3-39-47.19-39H768v80.4M813.77,49.69H723a12,12,0,0,0-12,12V315.87a12,12,0,0,0,12,12h45a12,12,0,0,0,12-12v-90h29.49c30,0,55.46-7.71,73.49-22.3,19.62-15.88,30-39.34,30-67.85,0-27.13-10.5-49.64-30.35-65.09-17.64-13.74-41.43-21-68.8-21Zm-33.82,60H808c11.67,0,20.93,2.36,26.78,6.81,5.66,4.32,8.41,10.91,8.41,20.17,0,17.66-6.19,29.42-36.37,29.42H780v-56.4Z" transform="translate(-0.61 -46.36)"/><path class="cls-2" d="M57.05,240.94c4.11,26.47,21.63,41.82,49.78,41.82,29.49,0,43-13.61,43-35.12,0-24.82-13.73-35.13-53.16-46.74-57-16.28-77.15-36.23-77.15-72.86,0-44.82,35.24-70.68,83.26-70.68,58.85,0,83.79,31.89,86.64,71H145.25c-3.4-21.22-14.49-36.24-43-36.24-25.18,0-37.64,12-37.64,31.54,0,20.64,12.91,27.4,50.57,38.5,64.12,19,80.52,44.25,80.52,80.22,0,41.73-28.12,75.56-90.86,75.56-54.54,0-88.88-28.08-92.18-77Z" transform="translate(-0.61 -46.36)"/><path class="cls-2" d="M239,314.87V60.69h57.81c84.34,163.62,97.07,188.46,101.21,200.22h.63c-2.48-31.44-2.85-72.77-2.85-114.21v-86h41.33V314.87h-55c-90.4-178.94-99.1-197.72-103.43-207.63h-.37c1.85,32.37,1.89,75.85,1.89,121.32v86.31Z" transform="translate(-0.61 -46.36)"/><path class="cls-2" d="M533.88,248.68l-20.26,66.19H469.33c8.29-24.67,70.13-226.2,79.42-254.18h57.74l83.27,254.18H642.44L621,248.68Zm77.86-37.52C594,154.88,582.08,118,576.6,95.46h-.48c-6.47,28.85-18.57,68.33-33.32,115.7Z" transform="translate(-0.61 -46.36)"/><path class="cls-2" d="M723,60.69h90.78c47.62,0,87.15,24.53,87.15,74.08,0,51.84-37.6,78.15-91.48,78.15H768v102H723Zm45,116.39h38.9c29.47,0,48.37-10.66,48.37-41.42,0-27.26-19.3-39-47.19-39H768Z" transform="translate(-0.61 -46.36)"/></g></g></svg>